<?xml version="1.0" standalone="no"?>
<!DOCTYPE svg PUBLIC "-//W3C//DTD SVG 20010904//EN"
 "http://www.w3.org/TR/2001/REC-SVG-20010904/DTD/svg10.dtd">
<svg version="1.0" xmlns="http://www.w3.org/2000/svg"
 width="444.000000pt" height="444.000000pt" viewBox="0 0 444.000000 444.000000"
 preserveAspectRatio="xMidYMid meet">
<metadata>
Created by potrace 1.11, written by Peter Selinger 2001-2013
</metadata>
<g transform="translate(0.000000,444.000000) scale(0.100000,-0.100000)"
fill="#000000" stroke="none">
<path d="M1759 4291 c-7 -10 -19 -16 -28 -14 -13 3 -17 -6 -19 -42 -1 -25 0
-45 4 -45 12 0 35 30 29 40 -3 5 -2 10 3 10 5 0 13 -20 16 -45 4 -25 11 -45
15 -45 5 0 11 -9 14 -20 4 -16 0 -20 -19 -20 -13 0 -24 -4 -24 -10 0 -5 -9
-10 -19 -10 -20 0 -35 -25 -25 -41 3 -5 -4 -9 -16 -9 -16 0 -20 4 -15 19 3 12
0 21 -10 24 -8 4 -12 13 -9 22 3 8 10 12 16 9 17 -11 58 6 58 24 0 14 -9 17
-48 17 -27 0 -55 -5 -63 -12 -8 -7 -24 -10 -35 -7 -20 5 -74 -29 -74 -46 0 -5
9 -12 20 -15 11 -4 18 -11 15 -16 -4 -5 2 -9 11 -9 10 0 14 3 11 7 -4 3 2 13
14 21 15 10 24 11 32 3 7 -7 5 -12 -7 -17 -14 -5 -15 -9 -4 -15 10 -7 10 -9 1
-9 -7 0 -13 -7 -13 -15 0 -8 -6 -12 -14 -9 -9 3 -20 -3 -28 -15 -15 -24 -48
-28 -48 -6 0 22 -59 19 -90 -5 l-25 -19 25 -9 c27 -11 22 -14 -34 -27 -15 -3
-34 -12 -42 -19 -11 -11 -10 -16 5 -30 10 -9 27 -16 39 -16 24 0 31 -34 9 -43
-12 -4 -50 -2 -72 4 -5 2 -25 -1 -43 -5 -26 -6 -32 -12 -27 -27 5 -16 1 -19
-24 -19 -21 0 -31 -5 -31 -15 0 -10 -10 -15 -30 -15 -16 0 -30 -4 -30 -8 0 -5
-10 -19 -22 -32 -13 -13 -21 -32 -20 -41 3 -18 -6 -21 -95 -34 -49 -8 -57 -22
-15 -27 24 -4 25 -5 7 -12 -11 -4 -29 -12 -40 -16 -11 -5 -37 -11 -57 -15 -37
-6 -54 -25 -22 -25 8 0 12 -4 9 -10 -3 -5 -1 -10 6 -10 7 0 2 -11 -11 -26 -18
-18 -31 -23 -47 -19 -20 5 -22 2 -17 -23 5 -24 1 -33 -24 -51 -17 -12 -34 -21
-39 -20 -30 5 -57 -5 -88 -34 -28 -26 -36 -41 -35 -63 3 -48 1 -54 -22 -54
-21 0 -21 0 -2 15 19 14 19 14 -2 15 -14 0 -21 6 -20 16 0 9 -5 19 -13 22 -10
3 -12 -1 -8 -17 4 -18 1 -21 -28 -21 -41 0 -67 -9 -59 -21 7 -12 44 -11 44 1
0 21 18 9 30 -20 10 -24 19 -30 41 -30 27 0 29 -2 29 -42 0 -57 -14 -79 -30
-49 -6 13 -9 29 -6 36 7 19 -4 26 -25 14 -13 -6 -25 -6 -38 3 -15 9 -25 9 -43
0 -31 -15 -60 -18 -76 -8 -9 5 -24 1 -43 -13 -15 -11 -42 -21 -59 -21 -20 0
-30 -5 -30 -15 0 -8 -11 -17 -25 -21 -33 -8 -35 -49 -3 -57 18 -5 19 -8 8 -21
-7 -9 -22 -16 -34 -16 -15 0 -29 -15 -49 -50 -41 -73 -48 -105 -31 -138 16
-32 18 -68 4 -77 -19 -12 -10 -25 18 -26 15 0 21 -3 15 -6 -7 -2 -13 -11 -13
-19 0 -8 -7 -14 -16 -14 -24 0 14 -57 43 -65 35 -8 28 -25 -11 -25 -19 0 -38
-4 -41 -10 -3 -5 3 -10 14 -10 16 0 21 -6 21 -25 0 -15 7 -28 17 -32 14 -5 13
-8 -5 -14 -26 -10 -29 -29 -4 -29 16 -1 16 -1 0 -11 -10 -5 -18 -17 -18 -26 0
-9 -8 -22 -17 -29 -15 -11 -16 -15 -4 -23 8 -5 20 -7 28 -4 7 3 13 0 13 -6 0
-6 -9 -11 -19 -11 -22 0 -34 -23 -19 -38 7 -7 6 -16 -1 -30 -10 -18 -7 -21 20
-27 l32 -7 -28 -24 c-27 -23 -27 -44 1 -44 8 0 -6 -19 -33 -41 -50 -44 -65
-69 -40 -69 27 0 28 -30 2 -40 -30 -11 -33 -30 -5 -30 11 0 20 -4 20 -8 0 -14
-23 -32 -42 -32 -10 0 -18 -7 -18 -16 0 -8 4 -13 9 -10 13 8 42 -4 35 -15 -3
-5 -13 -9 -23 -9 -23 0 -28 -18 -26 -99 1 -40 6 -66 13 -69 7 -2 10 -8 6 -13
-3 -5 0 -9 5 -9 22 0 10 -16 -19 -27 -36 -13 -32 -39 9 -55 l26 -11 -32 -9
c-56 -15 -40 -64 19 -60 14 1 30 -3 34 -9 4 -8 0 -9 -15 -4 -32 10 -28 -29 4
-43 22 -10 24 -15 15 -32 -6 -11 -21 -20 -35 -20 -31 0 -43 -20 -21 -35 14
-11 15 -13 1 -19 -21 -8 -19 -26 3 -26 11 0 31 -10 46 -23 l27 -23 -21 -26
c-24 -31 -25 -38 -5 -38 19 0 19 -14 1 -29 -11 -9 -16 -9 -21 0 -6 8 -10 7
-16 -2 -15 -24 -10 -32 16 -27 16 4 25 1 25 -8 0 -7 -10 -14 -22 -16 -21 -3
-23 -8 -23 -73 0 -38 -4 -76 -9 -84 -9 -14 8 -31 33 -31 11 0 11 -3 1 -15 -7
-8 -19 -15 -26 -15 -22 0 -16 -36 8 -53 l23 -15 -32 -12 c-28 -10 -31 -15 -23
-30 6 -10 19 -22 30 -25 11 -4 19 -13 18 -22 -3 -13 8 -23 40 -40 2 -1 1 -11
-3 -23 -5 -15 -13 -20 -33 -18 -37 4 -38 -33 -2 -43 l25 -7 -27 -1 c-21 -1
-28 -6 -28 -21 0 -13 7 -20 20 -20 12 0 32 -7 45 -16 25 -16 24 -19 -11 -57
-8 -8 -5 -16 12 -29 12 -10 27 -18 33 -18 6 0 11 -6 11 -13 0 -16 93 -49 113
-41 8 3 32 1 55 -4 32 -8 44 -7 53 4 9 12 16 11 39 -6 32 -23 65 -25 98 -6 17
9 39 10 74 5 28 -5 54 -6 58 -4 5 3 39 7 76 9 38 2 63 2 57 -1 -18 -7 -16 -23
2 -23 8 0 15 4 15 9 0 9 65 19 175 27 140 10 165 9 170 -3 2 -7 11 -13 19 -13
8 0 17 -6 20 -12 5 -10 7 -10 12 -1 3 8 15 11 28 7 16 -4 25 0 29 10 5 12 14
15 34 10 44 -9 229 -17 221 -9 -7 7 1 17 34 43 23 18 68 5 68 -20 0 -10 4 -16
10 -13 5 3 18 1 29 -4 15 -8 22 -6 33 10 17 26 87 52 104 38 13 -10 45 -2 56
15 5 7 8 7 8 -2 0 -9 12 -12 40 -9 29 3 40 0 40 -9 0 -19 16 -18 24 1 11 29
28 16 21 -15 -5 -24 -3 -30 10 -30 8 0 18 7 21 15 4 8 17 13 35 12 28 -2 33
-8 30 -35 -2 -8 5 -12 16 -10 10 2 18 10 18 18 0 20 16 31 38 24 26 -8 77 6
77 21 0 8 10 21 22 29 24 17 73 22 64 7 -7 -10 17 -21 45 -21 22 0 69 -28 69
-41 0 -5 -7 -9 -15 -9 -8 0 -15 -4 -15 -10 0 -5 -9 -10 -20 -10 -27 0 -25 -16
3 -24 33 -9 37 -8 37 10 0 12 6 15 20 10 11 -3 28 -8 38 -11 18 -6 42 32 42
67 0 21 9 22 33 4 15 -12 16 -18 8 -34 -6 -11 -16 -23 -23 -25 -8 -3 -9 -6 -2
-6 19 -2 81 27 100 46 13 13 32 18 75 17 45 -2 56 1 52 12 -3 8 -13 14 -22 14
-28 0 -42 20 -25 37 12 13 16 12 30 -1 8 -9 20 -16 25 -16 5 0 9 -7 9 -16 0
-8 5 -12 10 -9 16 10 12 -7 -7 -27 -22 -25 -12 -31 23 -13 26 13 29 13 36 -4
7 -21 65 -36 83 -21 6 5 14 7 18 4 3 -3 8 4 12 15 5 16 12 19 38 15 31 -4 31
-4 7 7 l-25 12 23 5 c13 2 31 -3 41 -12 10 -9 30 -17 45 -18 16 -2 31 -8 33
-15 6 -15 39 -17 48 -3 3 5 1 10 -4 10 -6 0 -11 4 -11 9 0 5 10 9 23 8 12 0
34 3 48 7 20 6 28 3 33 -11 4 -10 2 -19 -3 -21 -13 -4 -15 -32 -2 -32 5 0 16
3 25 6 18 7 22 34 5 34 -5 0 -7 5 -4 10 5 8 11 8 20 0 9 -8 17 -7 27 3 8 8 23
17 35 21 18 6 20 3 16 -13 -7 -27 25 -41 39 -18 5 10 13 17 18 17 15 0 12 -28
-2 -33 -10 -3 -10 -8 -2 -16 9 -10 19 -8 45 8 22 14 28 21 17 21 -19 0 -24 15
-9 24 5 4 12 0 15 -6 5 -10 7 -10 12 -1 7 15 34 5 28 -10 -2 -7 0 -18 5 -25
10 -16 54 -7 72 14 12 15 30 19 28 7 -2 -16 14 -53 22 -53 12 0 11 74 -1 86
-7 7 -2 15 15 24 28 15 50 4 22 -11 -26 -15 -22 -42 6 -33 12 4 38 7 57 6 33
-2 34 -1 16 13 -11 8 -24 15 -29 15 -4 0 -2 7 7 15 19 19 26 19 26 0 0 -17 31
-20 47 -4 12 12 53 3 53 -12 0 -9 -21 -13 -47 -10 -8 1 -10 -5 -7 -14 3 -8 13
-15 21 -15 25 0 93 22 93 30 0 13 94 33 98 21 6 -19 41 -12 53 11 8 14 14 18
17 10 4 -14 42 -17 42 -3 0 5 11 11 25 13 14 3 25 1 25 -4 0 -5 9 -6 21 -3 23
8 56 -25 37 -36 -14 -9 -3 -38 17 -45 22 -9 30 3 15 21 -20 24 -7 26 25 5 17
-11 24 -20 18 -20 -7 0 -13 -7 -13 -15 0 -16 42 -30 65 -21 9 3 15 0 15 -9 0
-9 10 -15 25 -15 l25 0 0 136 0 136 -24 -6 c-14 -3 -37 0 -53 8 -39 21 -66 29
-80 27 -17 -2 -17 16 0 22 6 3 -3 6 -22 6 -19 1 -31 -2 -28 -5 10 -11 -13 -44
-30 -44 -14 0 -14 2 3 14 22 17 15 27 -19 30 -14 0 -23 4 -20 8 9 15 -35 8
-48 -8 -8 -10 -21 -13 -37 -9 -14 3 -28 1 -32 -5 -4 -7 -15 -8 -31 -1 -42 15
-79 2 -97 -35 -9 -20 -23 -34 -34 -34 -24 0 -23 31 2 37 30 8 24 26 -15 44
-27 13 -44 14 -90 6 -40 -8 -54 -14 -51 -24 3 -7 1 -13 -4 -13 -6 0 -10 6 -10
14 0 9 -12 14 -35 14 -27 0 -35 -4 -35 -18 0 -11 10 -20 26 -24 31 -8 27 -30
-7 -34 -13 -2 -21 -1 -17 3 12 13 -19 34 -41 28 -26 -7 -27 -19 -1 -35 25 -16
25 -21 -4 -52 -26 -29 -56 -34 -56 -11 0 8 7 15 15 15 20 0 19 26 -1 34 -8 3
-12 10 -9 16 3 5 -1 10 -9 10 -9 0 -16 5 -16 10 0 15 -19 12 -37 -5 -12 -12
-13 -19 -3 -30 10 -13 8 -15 -14 -15 -52 0 -89 39 -51 54 8 3 15 12 15 21 0 9
10 20 23 24 21 9 21 9 3 17 -15 6 -26 0 -47 -26 -16 -18 -26 -37 -23 -42 3 -4
-3 -8 -14 -8 -31 0 -33 -11 -7 -32 36 -28 33 -64 -6 -72 -47 -9 -59 -7 -59 9
0 8 9 15 20 15 11 0 20 3 20 8 0 12 -57 72 -69 72 -6 0 -11 5 -11 10 0 6 -6
10 -12 9 -19 -2 -58 12 -58 21 0 5 10 11 23 13 12 3 4 5 -18 5 -50 -1 -106
-24 -99 -42 3 -8 -3 -16 -15 -19 -12 -3 -25 -17 -31 -31 -6 -18 -14 -24 -26
-19 -15 5 -15 7 0 15 25 14 19 38 -9 38 -16 0 -23 -4 -19 -13 8 -21 -35 -34
-100 -31 -64 4 -71 7 -71 32 0 13 -7 16 -30 13 -60 -8 -70 -6 -68 9 3 19 -51
44 -74 36 -9 -4 -20 -1 -24 5 -4 6 -12 8 -19 4 -10 -6 -8 -11 6 -22 18 -13 18
-15 1 -24 -9 -6 -26 -20 -38 -32 -15 -16 -22 -19 -28 -9 -4 7 -15 10 -24 6
-10 -3 -17 -1 -17 6 0 6 -5 8 -10 5 -9 -6 -54 5 -105 26 -15 6 -16 8 -4 8 23
1 49 33 31 38 -6 3 -10 9 -6 14 3 5 -4 9 -15 9 -14 0 -21 -6 -21 -18 0 -24
-19 -42 -46 -42 -13 0 -25 -4 -28 -9 -3 -4 -17 -6 -32 -3 -18 3 -30 0 -35 -11
-7 -12 -22 -15 -59 -13 -56 4 -81 16 -33 16 33 0 62 23 43 35 -5 3 -14 4 -19
1 -21 -13 -81 -14 -93 -2 -7 7 -19 11 -26 8 -7 -2 -19 4 -26 13 -9 13 -20 16
-39 11 -16 -4 -27 -2 -27 4 0 5 -9 10 -21 10 -16 0 -19 -4 -14 -20 5 -14 2
-20 -9 -20 -9 0 -15 5 -13 11 1 6 -4 14 -12 17 -8 2 -11 0 -7 -6 3 -5 -1 -12
-8 -15 -8 -3 -16 -1 -18 5 -3 7 -15 5 -35 -6 -39 -20 -64 -21 -37 -2 15 12 17
17 6 28 -9 9 -18 10 -30 2 -20 -11 -62 -7 -62 7 0 17 -19 9 -25 -11 -4 -11
-10 -18 -15 -15 -5 3 -14 -4 -20 -15 -15 -27 -28 -25 -36 6 -11 45 -64 86 -64
50 0 -18 -79 -33 -89 -18 -4 7 -21 7 -54 0 -37 -8 -47 -14 -47 -30 0 -17 -2
-19 -16 -7 -10 8 -18 9 -22 3 -4 -6 -27 -16 -52 -23 -25 -7 -55 -19 -67 -27
-21 -13 -23 -13 -23 6 0 17 -7 20 -40 20 -22 0 -40 4 -40 9 0 16 -32 22 -49 9
-9 -7 -26 -19 -39 -26 -21 -12 -24 -11 -29 7 -5 21 -33 30 -33 11 0 -5 -15
-10 -33 -10 -19 0 -37 -3 -41 -7 -10 -11 -49 -11 -72 -1 -15 7 -29 6 -44 -2
-17 -9 -25 -9 -38 3 -12 11 -35 14 -80 12 -66 -3 -99 -18 -73 -34 14 -9 7 -31
-9 -31 -5 0 -16 7 -25 16 -9 10 -24 14 -38 10 -22 -5 -23 -2 -23 50 0 44 -4
58 -18 66 -15 8 -16 12 -5 19 11 6 10 11 -4 27 -16 18 -16 20 3 37 27 24 26
53 -2 58 l-23 4 23 2 c27 1 29 21 2 28 -18 5 -18 8 -6 32 22 43 29 90 16 106
-10 12 -9 20 3 39 9 13 12 27 7 32 -4 5 -11 24 -15 42 -5 24 -3 33 9 38 12 5
15 19 12 66 -1 33 -7 63 -12 66 -6 4 -10 78 -9 177 1 135 -2 176 -14 197 -14
26 -14 31 2 58 10 17 15 34 12 40 -3 5 -1 27 6 49 8 29 9 47 1 70 -9 25 -8 31
4 31 23 0 16 37 -9 44 l-22 6 25 13 c34 17 39 54 8 60 l-23 4 23 8 c25 8 30
25 6 25 -14 0 -15 3 -2 23 8 13 12 34 8 52 -3 17 -1 34 6 40 6 6 19 32 28 60
15 44 15 50 0 58 -14 8 -14 11 1 34 15 22 15 27 1 58 -20 42 -20 40 5 64 17
16 20 26 14 48 -5 15 -7 49 -6 76 3 42 1 47 -18 47 -31 0 -28 45 5 75 15 14
24 25 20 25 -4 0 0 7 9 16 10 11 24 14 41 10 17 -5 26 -2 30 9 4 10 19 15 45
15 21 0 39 5 39 10 0 6 7 10 16 10 12 0 15 6 10 25 -4 14 -3 25 1 26 58 4 77
9 83 19 4 7 12 10 18 6 22 -13 22 14 0 33 -22 22 -20 25 20 21 13 -1 22 4 22
13 0 8 14 20 30 27 34 14 35 33 2 38 -29 4 -18 22 13 22 35 0 54 10 49 25 -7
18 31 38 57 30 13 -4 28 0 40 11 24 21 24 31 2 37 -12 3 -7 7 15 12 27 6 33
12 29 27 -4 12 1 21 11 25 43 13 62 27 52 37 -5 5 -10 16 -10 24 0 14 24 13
63 -3 13 -5 17 -2 17 12 0 11 9 28 20 38 11 10 20 13 20 7 0 -7 5 -12 10 -12
6 0 10 7 10 15 0 8 5 15 10 15 6 0 10 -4 10 -10 0 -5 8 -10 19 -10 12 0 21 11
28 33 7 26 14 32 34 29 19 -2 21 0 9 8 -8 5 -10 10 -4 10 18 0 66 49 59 60 -3
6 5 10 19 10 16 0 26 6 26 14 0 19 48 30 66 15 8 -7 17 -9 20 -6 9 9 -6 28
-17 22 -5 -4 -9 12 -9 34 0 42 19 68 22 29 0 -13 2 -28 2 -35 1 -7 7 -18 13
-24 14 -14 73 -23 73 -11 0 13 -24 39 -40 45 -8 3 -3 6 13 6 21 1 27 6 28 24
0 12 3 16 6 10 5 -14 61 -17 79 -5 22 15 25 44 5 49 -11 3 -21 13 -24 24 -4
15 0 19 18 19 12 0 28 -7 35 -15 14 -17 40 -20 40 -5 0 6 9 10 19 10 20 0 37
32 27 49 -4 5 12 12 35 16 30 5 43 13 47 27 4 18 11 20 66 14 104 -9 170 -22
174 -34 2 -7 12 -12 22 -12 10 0 32 -6 49 -13 28 -12 30 -15 17 -27 -13 -10
-16 -10 -16 4 0 9 -4 16 -10 16 -13 0 -13 -17 1 -25 6 -4 8 -12 6 -19 -3 -7
16 -22 44 -35 27 -12 49 -26 49 -30 0 -5 20 -12 45 -15 31 -5 45 -12 45 -23 0
-10 6 -14 20 -10 11 3 20 1 20 -4 0 -5 7 -9 15 -9 8 0 15 -7 15 -15 0 -8 6
-15 14 -15 7 0 19 -7 26 -15 9 -11 16 -13 24 -5 15 15 26 12 20 -5 -4 -11 1
-15 17 -16 13 -1 32 -2 41 -3 18 -1 78 -60 78 -76 0 -16 41 -32 65 -26 14 4
27 0 35 -9 10 -12 9 -15 -4 -15 -9 0 -16 -4 -16 -10 0 -14 37 -12 44 3 3 6 4
-1 1 -16 l-6 -29 48 7 c59 8 103 -7 103 -34 0 -11 9 -23 20 -26 11 -3 20 -11
20 -16 0 -5 10 -9 23 -9 28 0 47 -17 40 -36 -4 -10 4 -14 32 -14 20 0 34 -4
30 -10 -10 -16 33 -49 76 -59 22 -5 48 -16 58 -25 11 -10 25 -14 36 -10 14 6
16 3 10 -14 -6 -22 8 -31 20 -12 9 14 25 12 25 -3 0 -7 9 -18 19 -24 32 -20
53 -75 42 -106 -7 -17 -7 -37 0 -59 5 -18 7 -50 3 -72 -4 -24 -2 -41 5 -46 8
-5 9 -14 2 -32 -7 -18 -6 -39 1 -65 6 -21 10 -58 8 -83 -6 -121 -5 -677 2
-692 5 -9 4 -19 -1 -23 -10 -6 -7 -88 4 -105 4 -6 2 -17 -4 -24 -7 -8 -7 -23
-1 -44 5 -18 6 -32 2 -32 -4 0 0 -4 8 -10 12 -7 12 -16 3 -51 -7 -27 -8 -53
-2 -74 6 -21 6 -51 -1 -81 -8 -35 -8 -49 1 -54 8 -5 9 -21 3 -51 -5 -24 -7
-51 -6 -59 1 -8 4 -46 7 -84 2 -38 10 -85 17 -105 6 -20 13 -47 14 -61 1 -14
2 -31 3 -37 0 -7 7 -13 15 -13 9 0 12 -7 9 -19 -4 -16 2 -20 38 -26 44 -8 69
-24 69 -47 1 -9 5 -7 14 5 15 20 33 22 38 5 3 -7 25 -12 56 -12 30 0 52 -4 52
-10 0 -6 4 -5 9 2 4 8 12 13 17 13 5 0 9 11 9 26 0 30 22 43 31 19 12 -30 30
-16 45 37 15 49 15 53 -3 66 -11 7 -23 24 -28 37 -5 13 -16 24 -25 24 -19 0
-19 10 1 25 14 9 19 29 23 88 1 5 6 5 11 2 6 -3 10 -2 10 4 0 6 -15 7 -35 4
-29 -5 -39 -1 -65 25 -30 31 -39 52 -20 52 6 0 10 -7 10 -16 0 -13 3 -14 14
-5 22 18 25 47 7 63 -12 10 -17 28 -16 59 2 39 4 44 23 42 17 -2 22 3 22 22 0
14 -3 25 -7 25 -5 0 -13 11 -20 25 -10 23 -9 25 12 25 26 0 50 24 40 40 -14
22 -55 31 -71 15 -20 -19 -33 -19 -40 0 -4 9 4 23 17 34 18 15 23 27 21 55 -3
35 -3 36 23 26 34 -13 33 -14 27 15 -2 14 -8 25 -12 25 -4 0 -10 9 -13 20 -3
13 -10 18 -21 14 -11 -4 -16 -1 -16 11 0 11 5 15 14 12 16 -6 86 13 86 23 0 3
-14 16 -30 29 -26 18 -36 20 -65 12 -42 -11 -55 8 -16 25 22 9 25 15 23 49 -4
36 -2 37 21 31 19 -4 24 -2 22 12 -5 35 -18 62 -29 61 -25 -3 -37 2 -31 11 4
6 14 10 23 9 19 -2 102 12 102 17 0 11 -36 44 -48 44 -23 0 -8 34 20 48 25 11
26 15 16 38 -10 22 -18 25 -52 23 -67 -3 -73 -1 -47 17 18 13 28 14 47 5 35
-16 47 -14 36 5 -10 18 -4 64 9 64 5 0 9 4 9 9 0 14 -57 33 -79 26 -17 -5 -21
-2 -21 14 0 12 5 21 10 21 6 0 10 -4 10 -10 0 -5 14 -10 30 -10 32 0 50 26 48
67 0 10 0 23 2 28 6 23 -1 35 -22 36 -13 0 -17 3 -10 6 6 2 12 12 12 20 0 9
-6 13 -14 10 -8 -3 -18 4 -24 16 -15 32 -24 77 -15 77 5 0 14 9 21 21 11 17
10 25 -3 51 -13 27 -13 34 -1 53 12 19 12 26 2 47 -12 23 -11 27 10 43 26 19
33 40 10 32 -16 -7 -51 27 -42 41 3 5 -1 15 -9 22 -8 7 -15 21 -15 32 0 11 -9
22 -20 25 -11 3 -20 10 -20 15 0 5 5 6 10 3 21 -13 39 15 35 55 -2 22 0 42 5
45 16 10 -2 35 -25 35 -14 0 -31 12 -46 35 -17 24 -34 37 -58 41 -22 5 -39 16
-50 35 -17 29 -56 53 -72 44 -5 -4 -9 3 -9 15 0 16 -4 20 -19 15 -12 -3 -21 0
-25 10 -3 9 -18 15 -36 15 -16 0 -30 5 -30 10 0 6 -7 10 -14 10 -8 0 -27 12
-43 26 -18 16 -34 23 -48 20 -14 -4 -25 1 -33 15 -9 13 -22 20 -40 19 -47 -3
-51 -1 -71 38 -26 50 -37 59 -91 67 -25 4 -48 13 -52 20 -4 7 -20 16 -35 19
-51 13 -82 30 -85 49 -3 19 -91 56 -135 57 -15 0 -23 6 -23 18 0 28 -56 65
-88 57 -22 -4 -29 -1 -37 17 -7 16 -20 24 -42 26 -18 2 -33 7 -33 11 0 5 -13
14 -29 21 -16 6 -32 18 -35 26 -3 8 -14 14 -25 14 -25 0 -37 18 -22 33 8 8 11
8 11 -1 0 -7 7 -12 15 -12 8 0 15 5 15 10 0 6 -7 10 -15 10 -8 0 -24 9 -35 20
-11 11 -27 20 -36 20 -9 0 -12 5 -8 12 5 8 -3 9 -29 5 -21 -3 -37 -2 -37 3 0
5 -13 11 -30 15 -16 4 -30 11 -30 16 0 11 -84 99 -94 99 -4 0 -19 9 -33 20
-14 11 -39 20 -54 20 -19 0 -29 5 -29 15 0 21 -30 31 -41 14 -7 -11 -9 -11 -9
4 0 9 -4 17 -10 17 -5 0 -7 7 -4 15 7 18 -7 20 -23 4 -13 -13 -36 -3 -28 12 4
5 -8 9 -24 9 -17 0 -31 5 -31 10 0 6 -32 10 -75 10 -62 0 -77 -3 -86 -19z
m1079 -613 c-4 -29 -35 -35 -53 -11 -16 21 -4 33 33 33 19 0 23 -5 20 -22z
m-1858 -3053 c0 -8 7 -15 15 -15 8 0 19 -9 25 -20 6 -12 22 -21 38 -21 27 -2
27 -2 2 -6 -14 -3 -27 -8 -30 -12 -7 -10 -90 -31 -90 -22 1 16 19 33 29 27 17
-11 13 15 -6 37 -13 15 -15 21 -5 24 6 3 10 9 6 14 -3 5 0 9 5 9 6 0 11 -7 11
-15z"/>
<path d="M1610 4180 c0 -5 5 -10 10 -10 6 0 10 5 10 10 0 6 -4 10 -10 10 -5 0
-10 -4 -10 -10z"/>
<path d="M1288 3903 c7 -3 16 -2 19 1 4 3 -2 6 -13 5 -11 0 -14 -3 -6 -6z"/>
<path d="M1230 3850 c0 -5 7 -10 15 -10 8 0 15 5 15 10 0 6 -7 10 -15 10 -8 0
-15 -4 -15 -10z"/>
<path d="M1165 3800 c-3 -5 1 -10 9 -10 9 0 16 5 16 10 0 6 -4 10 -9 10 -6 0
-13 -4 -16 -10z"/>
<path d="M1690 3596 c0 -8 4 -17 9 -20 10 -7 23 19 14 28 -11 11 -23 6 -23 -8z"/>
<path d="M815 3540 c-3 -5 1 -10 9 -10 9 0 16 5 16 10 0 6 -4 10 -9 10 -6 0
-13 -4 -16 -10z"/>
<path d="M1620 3540 c0 -5 7 -10 15 -10 8 0 15 5 15 10 0 6 -7 10 -15 10 -8 0
-15 -4 -15 -10z"/>
<path d="M758 3443 c7 -3 16 -2 19 1 4 3 -2 6 -13 5 -11 0 -14 -3 -6 -6z"/>
<path d="M670 3400 c0 -5 9 -10 20 -10 11 0 20 5 20 10 0 6 -9 10 -20 10 -11
0 -20 -4 -20 -10z"/>
<path d="M467 3293 c-14 -13 -6 -23 18 -23 28 0 34 15 9 24 -19 7 -19 7 -27
-1z"/>
<path d="M405 3231 c-18 -4 -25 -9 -19 -14 16 -9 75 3 68 14 -3 5 -8 8 -12 8
-4 -1 -20 -4 -37 -8z"/>
<path d="M525 3170 c3 -5 8 -10 11 -10 2 0 4 5 4 10 0 6 -5 10 -11 10 -5 0 -7
-4 -4 -10z"/>
<path d="M97 2975 c3 -9 -2 -24 -12 -35 -15 -16 -16 -22 -5 -35 12 -14 15 -14
32 2 11 9 17 25 15 35 -4 13 1 18 16 18 22 1 22 1 3 15 -27 20 -57 20 -49 0z"/>
<path d="M1974 2937 c-8 -9 -7 -16 3 -26 8 -7 17 -10 21 -6 3 3 0 10 -8 15
-12 8 -10 10 8 10 13 0 20 4 17 10 -8 14 -28 12 -41 -3z"/>
<path d="M2020 2890 c0 -5 7 -10 15 -10 8 0 15 5 15 10 0 6 -7 10 -15 10 -8 0
-15 -4 -15 -10z"/>
<path d="M1905 2880 c-3 -5 1 -10 9 -10 9 0 16 5 16 10 0 6 -4 10 -9 10 -6 0
-13 -4 -16 -10z"/>
<path d="M1916 2838 c-37 -37 -38 -39 -20 -53 21 -16 40 -14 37 4 -3 12 43 16
51 3 2 -4 -2 -15 -9 -25 -9 -12 -15 -15 -20 -7 -5 8 -11 8 -19 1 -7 -6 -16 -7
-21 -3 -4 4 -5 -5 -1 -20 5 -22 3 -26 -9 -22 -8 4 -15 1 -15 -5 0 -6 8 -11 18
-11 13 0 14 -2 4 -9 -8 -4 -12 -17 -11 -27 4 -25 -10 -64 -22 -64 -16 0 -10
-39 8 -49 16 -8 14 -10 -10 -16 -30 -8 -36 -29 -11 -39 15 -6 15 -8 0 -25 -12
-13 -15 -27 -10 -47 7 -26 6 -28 -9 -16 -9 8 -21 11 -28 7 -8 -6 -7 -10 2 -16
11 -7 11 -9 -1 -9 -8 0 -21 -9 -28 -20 -11 -17 -9 -24 8 -43 15 -15 17 -23 8
-26 -14 -4 -38 -31 -38 -43 0 -4 8 -4 18 -1 15 6 15 5 3 -10 -12 -15 -11 -17
8 -17 22 0 22 0 4 -30 -13 -22 -25 -30 -45 -30 -15 0 -28 5 -28 10 0 6 -6 10
-14 10 -8 0 -16 5 -18 11 -3 9 -9 9 -24 1 -12 -6 -31 -8 -43 -5 -20 5 -20 6
-4 19 10 7 27 14 38 14 11 1 14 4 8 7 -7 2 -13 13 -13 24 0 13 -7 19 -24 19
-13 0 -26 -6 -29 -12 -2 -7 -8 -10 -12 -6 -4 4 -2 14 4 22 14 16 -1 28 -51 40
-19 4 -26 11 -22 21 5 11 -1 15 -22 16 -76 3 -106 10 -141 33 -36 24 -83 27
-83 6 0 -9 -39 -1 -55 10 -5 4 -20 6 -32 4 -18 -3 -23 1 -23 16 0 25 -32 27
-51 4 -11 -14 -10 -18 6 -30 17 -12 17 -14 2 -14 -9 0 -18 -4 -18 -10 -1 -5
-2 -14 -3 -20 0 -5 -9 -19 -18 -30 -10 -11 -18 -28 -18 -38 0 -14 -2 -15 -10
-2 -12 19 -44 2 -48 -27 -2 -16 4 -22 27 -26 21 -4 30 -13 33 -29 2 -15 11
-24 26 -26 12 -2 22 -10 22 -18 0 -14 5 -15 65 -19 16 -1 31 -7 33 -14 2 -6
18 -18 35 -26 18 -8 39 -19 47 -23 39 -23 79 -40 123 -52 27 -7 47 -18 47 -26
0 -8 7 -14 15 -14 8 0 15 5 15 12 0 6 8 4 19 -6 21 -19 17 -50 -6 -42 -10 4
-13 -2 -11 -22 3 -23 -1 -27 -22 -28 -45 -2 -50 -4 -50 -19 0 -8 6 -15 13 -15
6 0 -1 -11 -17 -25 -20 -17 -36 -23 -52 -19 -15 4 -24 2 -24 -6 0 -16 -26 -40
-68 -63 -49 -26 -104 -79 -93 -90 5 -5 6 -18 3 -29 -4 -15 -7 -17 -14 -6 -6
10 -22 -1 -63 -45 -30 -32 -55 -65 -55 -73 0 -18 -24 -44 -39 -44 -6 0 -11 -4
-11 -10 0 -5 -6 -10 -14 -10 -19 0 -29 -30 -11 -36 7 -3 11 -12 9 -19 -4 -8 3
-15 17 -17 20 -3 21 -5 8 -18 -8 -8 -14 -22 -14 -30 0 -9 -8 -14 -20 -13 -16
2 -21 -4 -20 -20 0 -12 4 -28 8 -34 4 -7 3 -21 -3 -32 -14 -27 -13 -41 5 -41
8 0 15 6 15 14 0 10 10 14 30 14 25 -1 30 -5 30 -25 0 -12 6 -23 13 -24 6 0
27 -2 45 -5 29 -3 32 -1 32 21 0 25 23 35 35 15 12 -19 27 -10 22 12 -4 14 1
27 15 39 13 12 19 26 15 39 -5 21 8 29 15 8 6 -16 58 -1 58 16 0 8 -8 17 -17
21 -15 6 -13 9 12 20 17 7 42 11 57 8 39 -8 91 31 85 64 -3 19 -1 22 13 18 14
-4 16 0 12 25 -3 19 0 30 7 30 7 0 9 5 6 10 -3 6 -1 10 4 10 6 0 11 11 11 25
0 18 5 25 19 25 11 0 21 4 23 8 2 5 16 12 31 16 19 4 26 3 22 -4 -3 -5 1 -10
9 -10 19 0 66 46 66 64 0 16 27 29 41 20 5 -3 9 -1 9 5 0 5 -8 11 -17 13 -14
3 -9 8 16 21 40 20 88 22 94 5 3 -10 8 -10 21 1 15 13 19 13 27 0 5 -8 9 -19
9 -26 0 -6 8 -14 18 -16 9 -3 3 -5 -15 -6 -44 -1 -46 -11 -12 -50 34 -39 40
-86 10 -78 -20 5 -49 -8 -39 -18 3 -3 15 -7 26 -8 21 -1 39 -37 20 -37 -6 0
-3 -9 7 -20 18 -20 17 -20 -8 -20 -15 0 -27 -4 -27 -10 0 -5 4 -10 9 -10 5 0
7 -9 4 -20 -4 -14 0 -20 10 -20 11 0 14 -7 11 -25 -2 -14 0 -25 5 -25 11 0 22
-34 26 -81 2 -20 15 -56 30 -80 35 -56 32 -54 47 -42 25 19 46 21 74 7 19 -10
30 -12 32 -5 2 6 12 11 21 11 25 0 33 11 20 27 -9 10 -8 13 5 13 19 0 21 16 4
24 -9 3 -8 8 5 16 14 9 16 15 7 25 -9 11 -6 19 14 38 14 13 26 31 26 40 0 25
-11 47 -25 47 -7 0 -18 6 -24 14 -10 12 -8 17 8 26 30 16 26 30 -10 30 -28 0
-29 1 -15 16 9 8 21 12 28 8 8 -5 9 -2 5 9 -4 11 -1 17 8 17 10 0 13 11 12 37
-2 29 -7 37 -25 40 -16 2 -22 -2 -22 -15 0 -10 -3 -13 -8 -6 -4 6 -14 13 -22
16 -8 3 4 9 28 13 32 6 42 12 42 26 0 11 -4 19 -10 19 -5 0 -10 -4 -10 -9 0
-5 -9 -11 -19 -14 -14 -3 -20 2 -24 18 -3 17 1 25 15 28 19 5 26 37 8 37 -5 0
-10 7 -10 15 0 8 -7 15 -15 15 -8 0 -15 9 -15 20 0 11 5 20 11 20 6 0 8 7 5
15 -8 21 14 28 47 16 20 -8 30 -7 42 5 8 9 16 11 16 5 1 -6 2 -17 3 -23 2 -21
56 -22 77 -2 17 15 23 16 41 5 15 -9 23 -10 31 -2 17 17 27 13 27 -9 0 -26 14
-25 32 1 12 19 20 20 56 14 24 -4 42 -12 42 -20 0 -18 24 -25 73 -21 23 2 34
2 25 -1 -21 -5 -24 -19 -5 -26 17 -5 47 3 47 14 0 5 6 9 14 9 8 0 17 6 19 13
3 7 6 5 6 -5 1 -18 21 -26 21 -9 0 5 9 13 20 16 11 3 20 11 20 16 0 5 -9 19
-20 31 -12 13 -20 17 -20 9 0 -8 -6 -11 -15 -7 -8 3 -15 1 -15 -5 0 -6 -4 -8
-9 -5 -4 3 -6 17 -3 31 2 15 0 25 -7 25 -6 0 -11 7 -11 15 0 8 -9 15 -20 15
-11 0 -20 -4 -20 -9 0 -16 -50 -65 -57 -57 -4 4 -1 11 6 15 8 5 11 17 6 30 -5
17 -2 21 14 21 12 0 21 5 21 10 0 6 -7 10 -15 10 -8 0 -15 4 -15 9 0 10 -5 11
-105 40 -43 12 -72 16 -76 10 -3 -5 -14 -6 -24 -3 -14 6 -17 4 -12 -9 3 -9 2
-17 -2 -17 -5 0 -11 7 -15 15 -3 8 -13 15 -22 15 -9 0 -25 10 -36 23 l-20 22
-18 -22 c-21 -27 -32 -30 -23 -7 3 9 1 19 -4 23 -6 3 -14 20 -20 36 -10 30
-19 33 -67 24 -10 -2 -21 1 -22 6 -2 6 23 18 55 27 33 10 66 25 75 34 15 14
16 14 16 -1 0 -9 6 -15 13 -12 6 2 11 16 10 31 -2 23 1 26 18 21 14 -5 19 -2
19 13 0 15 6 18 32 14 27 -4 30 -2 23 14 -4 11 -9 28 -12 39 -4 20 -4 20 11 1
15 -19 16 -18 22 12 5 24 14 34 40 42 19 7 32 16 29 21 -4 5 -2 17 4 26 9 16
10 16 16 2 4 -11 14 -14 31 -11 14 2 24 0 24 -7 0 -6 5 -11 10 -11 6 0 10 7
10 15 0 8 6 12 14 9 8 -3 21 4 29 16 11 15 16 18 20 8 6 -17 41 2 43 23 1 8 2
23 3 34 2 19 3 18 11 -2 12 -28 36 -30 43 -3 3 13 10 18 21 14 11 -4 16 -1 16
11 0 9 5 13 10 10 6 -3 10 1 10 9 0 8 -8 20 -17 25 -17 10 -16 11 2 12 11 1
24 1 29 0 5 -1 5 8 1 21 -3 13 -8 30 -9 38 -1 9 -6 21 -10 28 -6 10 0 13 25
10 31 -3 34 0 37 27 4 32 32 65 56 65 20 0 29 -17 14 -23 -10 -4 -9 -8 2 -16
12 -9 11 -11 -7 -11 -12 0 -23 6 -26 13 -2 6 -8 9 -11 5 -10 -8 30 -48 47 -48
31 1 68 60 36 60 -5 0 -7 -4 -4 -10 3 -5 1 -10 -5 -10 -6 0 -10 8 -8 18 3 17
37 21 98 11 19 -3 26 1 28 16 2 11 18 31 37 45 41 30 42 32 13 45 -13 6 -22
16 -21 23 2 7 -6 12 -17 12 -21 0 -28 -28 -10 -46 5 -5 5 -15 1 -22 -6 -11
-13 -8 -29 12 -11 14 -25 26 -31 26 -16 0 -13 -30 4 -36 8 -4 15 -12 15 -20 0
-8 8 -15 18 -15 9 -1 1 -5 -18 -8 -38 -7 -53 4 -44 31 3 10 -4 26 -16 38 l-22
22 -15 -21 c-10 -15 -21 -20 -34 -16 -13 5 -19 2 -19 -9 0 -13 -9 -15 -46 -12
-36 3 -44 1 -40 -11 4 -11 1 -13 -14 -8 -16 5 -20 2 -20 -14 0 -24 4 -25 31
-11 22 13 26 -2 4 -20 -12 -10 -20 -9 -40 4 -14 9 -25 23 -25 30 0 11 -5 12
-25 3 -27 -13 -33 -27 -12 -28 6 0 2 -4 -10 -9 -25 -10 -32 -40 -9 -40 17 0
38 -24 29 -33 -3 -4 -12 1 -18 10 -10 14 -16 15 -27 5 -16 -13 -37 4 -53 43
-8 19 -9 19 -12 -2 -3 -13 -9 -23 -14 -23 -14 0 -11 -20 4 -20 6 0 21 -8 32
-17 19 -15 19 -15 -7 -9 -32 7 -68 -11 -68 -35 0 -11 -12 -19 -32 -23 -30 -6
-41 0 -51 28 -4 11 -74 -11 -83 -26 -4 -6 1 -17 10 -24 18 -13 5 -31 -14 -19
-5 3 -10 0 -10 -8 0 -8 -7 -17 -15 -21 -9 -3 -15 0 -15 9 0 23 -24 18 -35 -7
-7 -16 -18 -22 -34 -20 -21 2 -23 -1 -18 -28 7 -32 3 -37 -37 -44 -16 -3 -38
-11 -50 -18 -29 -18 -63 -11 -69 14 -4 14 -11 19 -21 15 -9 -4 -16 -2 -16 3 0
5 -8 7 -17 3 -17 -6 -17 -5 -2 13 10 10 19 28 22 39 4 18 5 18 6 -2 2 -33 18
-28 26 8 5 21 3 34 -5 39 -9 6 -7 11 8 19 17 9 20 19 17 49 -1 20 -3 49 -4 65
-1 17 -6 27 -17 27 -10 0 -12 4 -7 13 4 6 6 19 5 29 -2 9 2 19 8 23 16 10 12
23 -10 30 -20 6 -28 35 -10 35 16 0 12 14 -15 42 -14 15 -25 32 -25 38 0 5 -7
10 -15 10 -8 0 -15 4 -15 9 0 25 -38 14 -74 -21z m737 -1069 c5 -4 6 -12 3
-18 -5 -8 -13 -8 -28 0 -15 8 -22 8 -28 -1 -5 -8 -18 -10 -39 -5 -24 5 -29 10
-21 20 5 6 21 10 34 8 17 -4 28 1 38 16 11 19 13 19 22 3 5 -9 14 -20 19 -23z"/>
<path d="M3048 2828 c9 -9 15 -9 24 0 9 9 7 12 -12 12 -19 0 -21 -3 -12 -12z"/>
<path d="M2982 2800 c-24 -22 -27 -30 -14 -30 11 0 52 35 52 44 0 12 -16 6
-38 -14z"/>
<path d="M1880 2770 c0 -5 5 -10 10 -10 6 0 10 5 10 10 0 6 -4 10 -10 10 -5 0
-10 -4 -10 -10z"/>
<path d="M2840 2750 c0 -5 5 -10 10 -10 6 0 10 5 10 10 0 6 -4 10 -10 10 -5 0
-10 -4 -10 -10z"/>
<path d="M3150 2720 c0 -5 5 -10 11 -10 5 0 7 5 4 10 -3 6 -8 10 -11 10 -2 0
-4 -4 -4 -10z"/>
<path d="M3115 2710 c3 -5 8 -10 11 -10 2 0 4 5 4 10 0 6 -5 10 -11 10 -5 0
-7 -4 -4 -10z"/>
<path d="M1857 2663 c-12 -12 -7 -22 8 -17 8 4 15 10 15 15 0 11 -14 12 -23 2z"/>
<path d="M3875 2630 c-3 -5 -1 -10 4 -10 6 0 11 5 11 10 0 6 -2 10 -4 10 -3 0
-8 -4 -11 -10z"/>
<path d="M2976 2594 c-9 -24 -8 -26 17 -18 31 9 34 14 17 24 -21 13 -27 12
-34 -6z"/>
<path d="M2838 2565 c-6 -14 -18 -25 -25 -25 -20 0 -11 -22 13 -30 23 -9 94
19 94 37 0 7 0 16 1 20 0 4 -4 9 -10 11 -6 2 -11 -3 -11 -12 0 -18 -8 -20 -29
-7 -7 5 -10 14 -7 20 4 6 2 11 -4 11 -6 0 -16 -11 -22 -25z"/>
<path d="M1830 2550 c0 -5 4 -10 9 -10 6 0 13 5 16 10 3 6 -1 10 -9 10 -9 0
-16 -4 -16 -10z"/>
<path d="M2481 2544 c0 -11 3 -14 6 -6 3 7 2 16 -1 19 -3 4 -6 -2 -5 -13z"/>
<path d="M2917 2523 c-12 -11 -8 -23 8 -23 8 0 15 7 15 15 0 16 -12 20 -23 8z"/>
<path d="M2800 2460 c0 -5 5 -10 10 -10 6 0 10 5 10 10 0 6 -4 10 -10 10 -5 0
-10 -4 -10 -10z"/>
<path d="M2495 2290 c3 -5 10 -10 16 -10 5 0 9 5 9 10 0 6 -7 10 -16 10 -8 0
-12 -4 -9 -10z"/>
<path d="M2701 1851 c-15 -10 -8 -41 9 -41 6 0 8 5 5 10 -3 6 3 10 14 10 25 0
28 15 5 24 -19 7 -16 8 -33 -3z"/>
<path d="M2776 1803 c-7 -7 16 -53 26 -53 4 0 8 11 8 24 0 13 6 26 13 29 6 2
0 4 -15 4 -15 0 -29 -2 -32 -4z"/>
<path d="M2310 1740 c0 -5 7 -10 15 -10 8 0 15 5 15 10 0 6 -7 10 -15 10 -8 0
-15 -4 -15 -10z"/>
<path d="M2426 1714 c-8 -21 -9 -21 17 -18 12 1 26 3 30 3 11 1 -19 31 -31 31
-6 0 -13 -7 -16 -16z"/>
<path d="M2520 1700 c0 -5 5 -10 10 -10 6 0 10 5 10 10 0 6 -4 10 -10 10 -5 0
-10 -4 -10 -10z"/>
<path d="M1560 1560 c0 -5 5 -10 10 -10 6 0 10 5 10 10 0 6 -4 10 -10 10 -5 0
-10 -4 -10 -10z"/>
<path d="M1520 1546 c0 -9 5 -16 10 -16 6 0 10 4 10 9 0 6 -4 13 -10 16 -5 3
-10 -1 -10 -9z"/>
<path d="M1500 1490 c0 -5 5 -10 11 -10 5 0 7 5 4 10 -3 6 -8 10 -11 10 -2 0
-4 -4 -4 -10z"/>
<path d="M960 1340 c0 -5 5 -10 10 -10 6 0 10 5 10 10 0 6 -4 10 -10 10 -5 0
-10 -4 -10 -10z"/>
<path d="M3866 1335 c-3 -9 -4 -21 0 -26 3 -5 0 -9 -6 -9 -6 0 -8 -4 -5 -10 3
-5 -2 -10 -11 -10 -10 0 -15 -3 -11 -6 13 -13 45 8 50 34 6 31 -7 52 -17 27z"/>
<path d="M2190 1250 c0 -5 5 -10 10 -10 6 0 10 5 10 10 0 6 -4 10 -10 10 -5 0
-10 -4 -10 -10z"/>
<path d="M3791 881 c-10 -6 -10 -10 -1 -16 13 -8 24 -1 19 14 -3 6 -10 7 -18
2z"/>
<path d="M1860 760 c0 -5 5 -10 10 -10 6 0 10 5 10 10 0 6 -4 10 -10 10 -5 0
-10 -4 -10 -10z"/>
<path d="M2190 750 c0 -5 7 -10 15 -10 8 0 15 5 15 10 0 6 -7 10 -15 10 -8 0
-15 -4 -15 -10z"/>
<path d="M2045 740 c3 -5 8 -10 11 -10 2 0 4 5 4 10 0 6 -5 10 -11 10 -5 0 -7
-4 -4 -10z"/>
<path d="M3359 727 c15 -19 41 -23 41 -7 0 6 -4 10 -9 10 -5 0 -18 3 -28 7
-16 6 -16 5 -4 -10z"/>
<path d="M3568 728 c9 -9 15 -9 24 0 9 9 7 12 -12 12 -19 0 -21 -3 -12 -12z"/>
<path d="M1280 720 c0 -5 5 -10 10 -10 6 0 10 5 10 10 0 6 -4 10 -10 10 -5 0
-10 -4 -10 -10z"/>
<path d="M2480 714 c0 -8 5 -12 10 -9 6 4 8 11 5 16 -9 14 -15 11 -15 -7z"/>
<path d="M3025 720 c3 -5 8 -10 11 -10 2 0 4 5 4 10 0 6 -5 10 -11 10 -5 0 -7
-4 -4 -10z"/>
<path d="M3320 714 c0 -8 5 -12 10 -9 6 3 10 10 10 16 0 5 -4 9 -10 9 -5 0
-10 -7 -10 -16z"/>
<path d="M2521 699 c7 -14 14 -18 21 -11 13 13 2 32 -18 32 -12 0 -13 -4 -3
-21z"/>
<path d="M3460 695 c0 -8 7 -15 15 -15 8 0 15 4 15 9 0 5 -7 11 -15 15 -9 3
-15 0 -15 -9z"/>
<path d="M2470 677 c0 -7 9 -13 20 -13 11 0 20 6 20 13 0 7 -9 13 -20 13 -11
0 -20 -6 -20 -13z"/>
<path d="M3316 681 c-4 -7 -5 -15 -2 -18 9 -9 19 4 14 18 -4 11 -6 11 -12 0z"/>
<path d="M2535 669 c-4 -6 -5 -13 -2 -16 7 -7 27 6 27 18 0 12 -17 12 -25 -2z"/>
<path d="M2975 670 c3 -5 8 -10 11 -10 2 0 4 5 4 10 0 6 -5 10 -11 10 -5 0 -7
-4 -4 -10z"/>
<path d="M4170 510 c0 -5 5 -10 10 -10 6 0 10 5 10 10 0 6 -4 10 -10 10 -5 0
-10 -4 -10 -10z"/>
<path d="M4190 476 c0 -14 24 -29 33 -19 3 3 3 11 0 19 -7 18 -33 18 -33 0z"/>
<path d="M2291 447 c-19 -21 -20 -26 -7 -36 12 -10 19 -10 36 2 11 7 17 17 14
20 -4 4 -1 13 6 22 22 26 -23 18 -49 -8z"/>
<path d="M3955 460 c3 -5 8 -10 11 -10 2 0 4 5 4 10 0 6 -5 10 -11 10 -5 0 -7
-4 -4 -10z"/>
<path d="M1816 449 c17 -7 17 -8 2 -8 -10 -1 -18 -7 -18 -15 0 -11 12 -15 40
-14 22 0 40 4 40 8 0 4 10 10 22 13 36 10 12 20 -49 22 -34 1 -49 -1 -37 -6z"/>
<path d="M2630 440 c0 -5 5 -10 10 -10 6 0 10 5 10 10 0 6 -4 10 -10 10 -5 0
-10 -4 -10 -10z"/>
<path d="M2133 428 c-25 -12 -29 -23 -13 -33 6 -3 10 1 10 11 0 13 3 14 15 4
13 -10 15 -9 15 9 0 11 -1 21 -2 20 -2 0 -13 -5 -25 -11z"/>
<path d="M1670 400 c0 -5 5 -10 11 -10 5 0 7 5 4 10 -3 6 -8 10 -11 10 -2 0
-4 -4 -4 -10z"/>
<path d="M1905 400 c3 -5 8 -10 11 -10 2 0 4 5 4 10 0 6 -5 10 -11 10 -5 0 -7
-4 -4 -10z"/>
<path d="M2185 390 c3 -5 12 -7 20 -3 21 7 19 13 -6 13 -11 0 -18 -4 -14 -10z"/>
<path d="M2748 393 c6 -2 18 -2 25 0 6 3 1 5 -13 5 -14 0 -19 -2 -12 -5z"/>
</g>
</svg>
